<?xml version="1.0" standalone="no"?>
<!DOCTYPE svg PUBLIC "-//W3C//DTD SVG 20010904//EN"
 "http://www.w3.org/TR/2001/REC-SVG-20010904/DTD/svg10.dtd">
<svg version="1.0" xmlns="http://www.w3.org/2000/svg"
 width="1123.000000pt" height="1121.000000pt" viewBox="0 0 1123.000000 1121.000000"
 preserveAspectRatio="xMidYMid meet">
<metadata>
Created by potrace 1.16, written by Peter Selinger 2001-2019
</metadata>
<g transform="translate(0.000000,1121.000000) scale(0.100000,-0.100000)"
fill="#000000" stroke="none">
<path d="M2911 11175 c-392 -45 -756 -155 -1110 -335 -876 -445 -1512 -1266
-1720 -2220 -71 -325 -66 -80 -66 -3030 0 -2508 1 -2662 18 -2775 111 -737
429 -1368 949 -1882 488 -483 1056 -775 1758 -905 l125 -23 2745 0 2745 0 124
23 c866 158 1586 603 2104 1301 342 460 565 1047 617 1621 8 90 10 844 7 2725
-3 2588 -3 2601 -24 2725 -124 737 -433 1341 -945 1847 -273 270 -538 457
-883 624 -255 123 -490 203 -761 258 -315 64 -176 61 -3001 60 -2045 -1 -2591
-4 -2682 -14z m5299 -940 c170 -21 290 -49 462 -105 599 -197 1103 -644 1375
-1219 105 -222 186 -513 213 -763 14 -134 14 -4982 0 -5116 -116 -1095 -969
-1960 -2058 -2087 -109 -13 -476 -15 -2590 -15 -1618 0 -2496 4 -2560 10 -657
70 -1249 407 -1642 935 -247 332 -405 739 -450 1157 -14 134 -14 4982 0 5116
57 537 295 1037 675 1417 370 370 842 601 1370 670 80 10 604 13 2590 14 2183
1 2506 -1 2615 -14z"/>
<path d="M8534 9321 c-242 -39 -455 -211 -547 -441 -76 -193 -57 -437 50 -619
49 -83 161 -195 244 -244 35 -21 100 -50 144 -64 71 -24 95 -27 220 -27 128 0
147 2 220 28 224 77 376 233 452 461 22 68 26 98 27 200 0 85 -5 139 -18 185
-66 244 -251 434 -486 500 -84 23 -229 33 -306 21z"/>
<path d="M5340 8384 c-25 -3 -114 -16 -198 -30 -444 -73 -854 -250 -1232 -532
-157 -117 -419 -381 -541 -544 -289 -388 -467 -820 -541 -1313 -21 -143 -18
-640 5 -780 56 -336 134 -580 277 -865 139 -277 285 -476 519 -711 235 -234
429 -376 711 -518 409 -207 805 -301 1270 -301 532 0 999 129 1458 403 344
205 697 553 916 902 192 304 327 661 393 1032 26 149 28 174 28 458 0 240 -4
322 -18 410 -81 503 -256 915 -556 1310 -107 141 -380 412 -526 521 -387 289
-790 459 -1282 540 -95 15 -570 28 -683 18z m480 -945 c647 -80 1197 -475
1472 -1057 185 -390 227 -836 118 -1255 -163 -634 -655 -1143 -1280 -1322
-205 -59 -290 -70 -530 -69 -195 0 -227 3 -345 28 -526 111 -952 407 -1232
856 -339 545 -363 1259 -61 1829 182 346 476 634 823 808 165 83 389 152 575
177 128 17 346 20 460 5z"/>
</g>
</svg>
